<?xml version="1.0" encoding="UTF-8" ?>
<svg version="1.1" width="32" height="32" xmlns="http://www.w3.org/2000/svg" shape-rendering="crispEdges">
<rect x="0" y="0" width="1" height="1" fill="#D5D5D5" />
<rect x="1" y="0" width="1" height="1" fill="#000000" />
<rect x="2" y="0" width="1" height="1" fill="#000000" />
<rect x="3" y="0" width="1" height="1" fill="#000000" />
<rect x="4" y="0" width="1" height="1" fill="#000000" />
<rect x="5" y="0" width="1" height="1" fill="#000000" />
<rect x="6" y="0" width="1" height="1" fill="#000000" />
<rect x="7" y="0" width="1" height="1" fill="#000000" />
<rect x="8" y="0" width="1" height="1" fill="#3E3E3E" />
<rect x="9" y="0" width="1" height="1" fill="#2E2E2E" />
<rect x="10" y="0" width="1" height="1" fill="#2B2B2B" />
<rect x="11" y="0" width="1" height="1" fill="#DCDCDC" />
<rect x="12" y="0" width="1" height="1" fill="#DCDCDC" />
<rect x="13" y="0" width="1" height="1" fill="#DCDCDC" />
<rect x="14" y="0" width="1" height="1" fill="#DCDCDC" />
<rect x="15" y="0" width="1" height="1" fill="#DCDCDC" />
<rect x="16" y="0" width="1" height="1" fill="#DCDCDC" />
<rect x="17" y="0" width="1" height="1" fill="#DCDCDC" />
<rect x="18" y="0" width="1" height="1" fill="#DCDCDC" />
<rect x="19" y="0" width="1" height="1" fill="#DCDCDC" />
<rect x="20" y="0" width="1" height="1" fill="#DCDCDC" />
<rect x="21" y="0" width="1" height="1" fill="#2B2B2B" />
<rect x="22" y="0" width="1" height="1" fill="#2E2E2E" />
<rect x="23" y="0" width="1" height="1" fill="#3E3E3E" />
<rect x="24" y="0" width="1" height="1" fill="#000000" />
<rect x="25" y="0" width="1" height="1" fill="#000000" />
<rect x="26" y="0" width="1" height="1" fill="#000000" />
<rect x="27" y="0" width="1" height="1" fill="#000000" />
<rect x="28" y="0" width="1" height="1" fill="#000000" />
<rect x="29" y="0" width="1" height="1" fill="#000000" />
<rect x="30" y="0" width="1" height="1" fill="#000000" />
<rect x="31" y="0" width="1" height="1" fill="#D5D5D5" />
<rect x="0" y="1" width="1" height="1" fill="#000000" />
<rect x="1" y="1" width="1" height="1" fill="#A2A2A2" />
<rect x="2" y="1" width="1" height="1" fill="#000000" />
<rect x="3" y="1" width="1" height="1" fill="#000000" opacity="0.380392" />
<rect x="4" y="1" width="1" height="1" fill="#000000" opacity="0.380392" />
<rect x="5" y="1" width="1" height="1" fill="#000000" opacity="0.380392" />
<rect x="6" y="1" width="1" height="1" fill="#000000" opacity="0.380392" />
<rect x="7" y="1" width="1" height="1" fill="#000000" />
<rect x="8" y="1" width="1" height="1" fill="#000000" />
<rect x="9" y="1" width="1" height="1" fill="#2E2E2E" />
<rect x="10" y="1" width="1" height="1" fill="#2B2B2B" />
<rect x="11" y="1" width="1" height="1" fill="#DCDCDC" />
<rect x="12" y="1" width="1" height="1" fill="#DCDCDC" />
<rect x="13" y="1" width="1" height="1" fill="#DCDCDC" />
<rect x="14" y="1" width="1" height="1" fill="#DCDCDC" />
<rect x="15" y="1" width="1" height="1" fill="#DCDCDC" />
<rect x="16" y="1" width="1" height="1" fill="#DCDCDC" />
<rect x="17" y="1" width="1" height="1" fill="#DCDCDC" />
<rect x="18" y="1" width="1" height="1" fill="#DCDCDC" />
<rect x="19" y="1" width="1" height="1" fill="#DCDCDC" />
<rect x="20" y="1" width="1" height="1" fill="#DCDCDC" />
<rect x="21" y="1" width="1" height="1" fill="#2B2B2B" />
<rect x="22" y="1" width="1" height="1" fill="#2E2E2E" />
<rect x="23" y="1" width="1" height="1" fill="#000000" />
<rect x="24" y="1" width="1" height="1" fill="#000000" />
<rect x="25" y="1" width="1" height="1" fill="#000000" opacity="0.380392" />
<rect x="26" y="1" width="1" height="1" fill="#000000" opacity="0.380392" />
<rect x="27" y="1" width="1" height="1" fill="#000000" opacity="0.380392" />
<rect x="28" y="1" width="1" height="1" fill="#000000" opacity="0.380392" />
<rect x="29" y="1" width="1" height="1" fill="#000000" />
<rect x="30" y="1" width="1" height="1" fill="#A2A2A2" />
<rect x="31" y="1" width="1" height="1" fill="#000000" />
<rect x="0" y="2" width="1" height="1" fill="#000000" />
<rect x="1" y="2" width="1" height="1" fill="#000000" />
<rect x="2" y="2" width="1" height="1" fill="#000000" opacity="0.380392" />
<rect x="3" y="2" width="1" height="1" fill="#000000" opacity="0.380392" />
<rect x="4" y="2" width="1" height="1" fill="#000000" opacity="0.215686" />
<rect x="5" y="2" width="1" height="1" fill="#000000" opacity="0.215686" />
<rect x="6" y="2" width="1" height="1" fill="#000000" opacity="0.215686" />
<rect x="7" y="2" width="1" height="1" fill="#000000" opacity="0.215686" />
<rect x="8" y="2" width="1" height="1" fill="#000000" opacity="0.215686" />
<rect x="9" y="2" width="1" height="1" fill="#2E2E2E" />
<rect x="10" y="2" width="1" height="1" fill="#2B2B2B" />
<rect x="11" y="2" width="1" height="1" fill="#DCDCDC" />
<rect x="12" y="2" width="1" height="1" fill="#DCDCDC" />
<rect x="13" y="2" width="1" height="1" fill="#DCDCDC" />
<rect x="14" y="2" width="1" height="1" fill="#DCDCDC" />
<rect x="15" y="2" width="1" height="1" fill="#DCDCDC" />
<rect x="16" y="2" width="1" height="1" fill="#DCDCDC" />
<rect x="17" y="2" width="1" height="1" fill="#DCDCDC" />
<rect x="18" y="2" width="1" height="1" fill="#DCDCDC" />
<rect x="19" y="2" width="1" height="1" fill="#DCDCDC" />
<rect x="20" y="2" width="1" height="1" fill="#DCDCDC" />
<rect x="21" y="2" width="1" height="1" fill="#2B2B2B" />
<rect x="22" y="2" width="1" height="1" fill="#2E2E2E" />
<rect x="23" y="2" width="1" height="1" fill="#000000" opacity="0.215686" />
<rect x="24" y="2" width="1" height="1" fill="#000000" opacity="0.215686" />
<rect x="25" y="2" width="1" height="1" fill="#000000" opacity="0.215686" />
<rect x="26" y="2" width="1" height="1" fill="#000000" opacity="0.215686" />
<rect x="27" y="2" width="1" height="1" fill="#000000" opacity="0.215686" />
<rect x="28" y="2" width="1" height="1" fill="#000000" opacity="0.380392" />
<rect x="29" y="2" width="1" height="1" fill="#000000" opacity="0.380392" />
<rect x="30" y="2" width="1" height="1" fill="#000000" />
<rect x="31" y="2" width="1" height="1" fill="#000000" />
<rect x="0" y="3" width="1" height="1" fill="#000000" />
<rect x="1" y="3" width="1" height="1" fill="#000000" opacity="0.380392" />
<rect x="2" y="3" width="1" height="1" fill="#000000" opacity="0.380392" />
<rect x="3" y="3" width="1" height="1" fill="#000000" opacity="0.215686" />
<rect x="4" y="3" width="1" height="1" fill="#000000" opacity="0.215686" />
<rect x="5" y="3" width="1" height="1" fill="#000000" opacity="0.070588" />
<rect x="6" y="3" width="1" height="1" fill="#000000" opacity="0.070588" />
<rect x="7" y="3" width="1" height="1" fill="#000000" opacity="0.070588" />
<rect x="8" y="3" width="1" height="1" fill="#000000" opacity="0.070588" />
<rect x="9" y="3" width="1" height="1" fill="#2E2E2E" />
<rect x="10" y="3" width="1" height="1" fill="#2B2B2B" />
<rect x="11" y="3" width="1" height="1" fill="#DCDCDC" />
<rect x="12" y="3" width="1" height="1" fill="#DCDCDC" />
<rect x="13" y="3" width="1" height="1" fill="#DCDCDC" />
<rect x="14" y="3" width="1" height="1" fill="#DCDCDC" />
<rect x="15" y="3" width="1" height="1" fill="#DCDCDC" />
<rect x="16" y="3" width="1" height="1" fill="#DCDCDC" />
<rect x="17" y="3" width="1" height="1" fill="#DCDCDC" />
<rect x="18" y="3" width="1" height="1" fill="#DCDCDC" />
<rect x="19" y="3" width="1" height="1" fill="#DCDCDC" />
<rect x="20" y="3" width="1" height="1" fill="#DCDCDC" />
<rect x="21" y="3" width="1" height="1" fill="#2B2B2B" />
<rect x="22" y="3" width="1" height="1" fill="#2E2E2E" />
<rect x="23" y="3" width="1" height="1" fill="#000000" opacity="0.070588" />
<rect x="24" y="3" width="1" height="1" fill="#000000" opacity="0.070588" />
<rect x="25" y="3" width="1" height="1" fill="#000000" opacity="0.070588" />
<rect x="26" y="3" width="1" height="1" fill="#000000" opacity="0.070588" />
<rect x="27" y="3" width="1" height="1" fill="#000000" opacity="0.215686" />
<rect x="28" y="3" width="1" height="1" fill="#000000" opacity="0.215686" />
<rect x="29" y="3" width="1" height="1" fill="#000000" opacity="0.380392" />
<rect x="30" y="3" width="1" height="1" fill="#000000" opacity="0.380392" />
<rect x="31" y="3" width="1" height="1" fill="#000000" />
<rect x="0" y="4" width="1" height="1" fill="#000000" />
<rect x="1" y="4" width="1" height="1" fill="#000000" opacity="0.380392" />
<rect x="2" y="4" width="1" height="1" fill="#000000" opacity="0.215686" />
<rect x="3" y="4" width="1" height="1" fill="#000000" opacity="0.215686" />
<rect x="4" y="4" width="1" height="1" fill="#000000" opacity="0.070588" />
<rect x="5" y="4" width="1" height="1" fill="#000000" opacity="0.070588" />
<rect x="9" y="4" width="1" height="1" fill="#2E2E2E" />
<rect x="10" y="4" width="1" height="1" fill="#2B2B2B" />
<rect x="11" y="4" width="1" height="1" fill="#DCDCDC" />
<rect x="12" y="4" width="1" height="1" fill="#DCDCDC" />
<rect x="13" y="4" width="1" height="1" fill="#DCDCDC" />
<rect x="14" y="4" width="1" height="1" fill="#DCDCDC" />
<rect x="15" y="4" width="1" height="1" fill="#DCDCDC" />
<rect x="16" y="4" width="1" height="1" fill="#DCDCDC" />
<rect x="17" y="4" width="1" height="1" fill="#DCDCDC" />
<rect x="18" y="4" width="1" height="1" fill="#DCDCDC" />
<rect x="19" y="4" width="1" height="1" fill="#DCDCDC" />
<rect x="20" y="4" width="1" height="1" fill="#DCDCDC" />
<rect x="21" y="4" width="1" height="1" fill="#2B2B2B" />
<rect x="22" y="4" width="1" height="1" fill="#2E2E2E" />
<rect x="26" y="4" width="1" height="1" fill="#000000" opacity="0.070588" />
<rect x="27" y="4" width="1" height="1" fill="#000000" opacity="0.070588" />
<rect x="28" y="4" width="1" height="1" fill="#000000" opacity="0.215686" />
<rect x="29" y="4" width="1" height="1" fill="#000000" opacity="0.215686" />
<rect x="30" y="4" width="1" height="1" fill="#000000" opacity="0.380392" />
<rect x="31" y="4" width="1" height="1" fill="#000000" />
<rect x="0" y="5" width="1" height="1" fill="#000000" />
<rect x="1" y="5" width="1" height="1" fill="#000000" opacity="0.380392" />
<rect x="2" y="5" width="1" height="1" fill="#000000" opacity="0.215686" />
<rect x="3" y="5" width="1" height="1" fill="#000000" opacity="0.070588" />
<rect x="4" y="5" width="1" height="1" fill="#000000" opacity="0.070588" />
<rect x="9" y="5" width="1" height="1" fill="#2E2E2E" />
<rect x="10" y="5" width="1" height="1" fill="#2B2B2B" />
<rect x="11" y="5" width="1" height="1" fill="#DCDCDC" />
<rect x="12" y="5" width="1" height="1" fill="#DCDCDC" />
<rect x="13" y="5" width="1" height="1" fill="#DCDCDC" />
<rect x="14" y="5" width="1" height="1" fill="#DCDCDC" />
<rect x="15" y="5" width="1" height="1" fill="#DCDCDC" />
<rect x="16" y="5" width="1" height="1" fill="#DCDCDC" />
<rect x="17" y="5" width="1" height="1" fill="#DCDCDC" />
<rect x="18" y="5" width="1" height="1" fill="#DCDCDC" />
<rect x="19" y="5" width="1" height="1" fill="#DCDCDC" />
<rect x="20" y="5" width="1" height="1" fill="#DCDCDC" />
<rect x="21" y="5" width="1" height="1" fill="#2B2B2B" />
<rect x="22" y="5" width="1" height="1" fill="#2E2E2E" />
<rect x="27" y="5" width="1" height="1" fill="#000000" opacity="0.070588" />
<rect x="28" y="5" width="1" height="1" fill="#000000" opacity="0.070588" />
<rect x="29" y="5" width="1" height="1" fill="#000000" opacity="0.215686" />
<rect x="30" y="5" width="1" height="1" fill="#000000" opacity="0.380392" />
<rect x="31" y="5" width="1" height="1" fill="#000000" />
<rect x="0" y="6" width="1" height="1" fill="#000000" />
<rect x="1" y="6" width="1" height="1" fill="#000000" opacity="0.380392" />
<rect x="2" y="6" width="1" height="1" fill="#000000" opacity="0.215686" />
<rect x="3" y="6" width="1" height="1" fill="#000000" opacity="0.070588" />
<rect x="9" y="6" width="1" height="1" fill="#3E3E3E" />
<rect x="10" y="6" width="1" height="1" fill="#2E2E2E" />
<rect x="11" y="6" width="1" height="1" fill="#2E2E2E" />
<rect x="12" y="6" width="1" height="1" fill="#DCDCDC" />
<rect x="13" y="6" width="1" height="1" fill="#DCDCDC" />
<rect x="14" y="6" width="1" height="1" fill="#DCDCDC" />
<rect x="15" y="6" width="1" height="1" fill="#DCDCDC" />
<rect x="16" y="6" width="1" height="1" fill="#DCDCDC" />
<rect x="17" y="6" width="1" height="1" fill="#DCDCDC" />
<rect x="18" y="6" width="1" height="1" fill="#DCDCDC" />
<rect x="19" y="6" width="1" height="1" fill="#DCDCDC" />
<rect x="20" y="6" width="1" height="1" fill="#2E2E2E" />
<rect x="21" y="6" width="1" height="1" fill="#2E2E2E" />
<rect x="22" y="6" width="1" height="1" fill="#3E3E3E" />
<rect x="28" y="6" width="1" height="1" fill="#000000" opacity="0.070588" />
<rect x="29" y="6" width="1" height="1" fill="#000000" opacity="0.215686" />
<rect x="30" y="6" width="1" height="1" fill="#000000" opacity="0.380392" />
<rect x="31" y="6" width="1" height="1" fill="#000000" />
<rect x="0" y="7" width="1" height="1" fill="#000000" />
<rect x="1" y="7" width="1" height="1" fill="#000000" />
<rect x="2" y="7" width="1" height="1" fill="#000000" opacity="0.215686" />
<rect x="3" y="7" width="1" height="1" fill="#000000" opacity="0.070588" />
<rect x="10" y="7" width="1" height="1" fill="#3E3E3E" />
<rect x="11" y="7" width="1" height="1" fill="#2E2E2E" />
<rect x="12" y="7" width="1" height="1" fill="#2B2B2B" />
<rect x="13" y="7" width="1" height="1" fill="#2B2B2B" />
<rect x="14" y="7" width="1" height="1" fill="#2B2B2B" />
<rect x="15" y="7" width="1" height="1" fill="#2B2B2B" />
<rect x="16" y="7" width="1" height="1" fill="#2B2B2B" />
<rect x="17" y="7" width="1" height="1" fill="#2B2B2B" />
<rect x="18" y="7" width="1" height="1" fill="#2B2B2B" />
<rect x="19" y="7" width="1" height="1" fill="#2B2B2B" />
<rect x="20" y="7" width="1" height="1" fill="#2E2E2E" />
<rect x="21" y="7" width="1" height="1" fill="#3E3E3E" />
<rect x="28" y="7" width="1" height="1" fill="#000000" opacity="0.070588" />
<rect x="29" y="7" width="1" height="1" fill="#000000" opacity="0.215686" />
<rect x="30" y="7" width="1" height="1" fill="#000000" />
<rect x="31" y="7" width="1" height="1" fill="#000000" />
<rect x="0" y="8" width="1" height="1" fill="#3E3E3E" />
<rect x="1" y="8" width="1" height="1" fill="#000000" />
<rect x="2" y="8" width="1" height="1" fill="#000000" opacity="0.215686" />
<rect x="3" y="8" width="1" height="1" fill="#000000" opacity="0.070588" />
<rect x="11" y="8" width="1" height="1" fill="#3E3E3E" />
<rect x="12" y="8" width="1" height="1" fill="#2E2E2E" />
<rect x="13" y="8" width="1" height="1" fill="#2E2E2E" />
<rect x="14" y="8" width="1" height="1" fill="#2E2E2E" />
<rect x="15" y="8" width="1" height="1" fill="#2E2E2E" />
<rect x="16" y="8" width="1" height="1" fill="#2E2E2E" />
<rect x="17" y="8" width="1" height="1" fill="#2E2E2E" />
<rect x="18" y="8" width="1" height="1" fill="#2E2E2E" />
<rect x="19" y="8" width="1" height="1" fill="#2E2E2E" />
<rect x="20" y="8" width="1" height="1" fill="#3E3E3E" />
<rect x="28" y="8" width="1" height="1" fill="#000000" opacity="0.070588" />
<rect x="29" y="8" width="1" height="1" fill="#000000" opacity="0.215686" />
<rect x="30" y="8" width="1" height="1" fill="#000000" />
<rect x="31" y="8" width="1" height="1" fill="#3E3E3E" />
<rect x="0" y="9" width="1" height="1" fill="#2E2E2E" />
<rect x="1" y="9" width="1" height="1" fill="#2E2E2E" />
<rect x="2" y="9" width="1" height="1" fill="#2E2E2E" />
<rect x="3" y="9" width="1" height="1" fill="#2E2E2E" />
<rect x="4" y="9" width="1" height="1" fill="#2E2E2E" />
<rect x="5" y="9" width="1" height="1" fill="#2E2E2E" />
<rect x="6" y="9" width="1" height="1" fill="#3E3E3E" />
<rect x="25" y="9" width="1" height="1" fill="#3E3E3E" />
<rect x="26" y="9" width="1" height="1" fill="#2E2E2E" />
<rect x="27" y="9" width="1" height="1" fill="#2E2E2E" />
<rect x="28" y="9" width="1" height="1" fill="#2E2E2E" />
<rect x="29" y="9" width="1" height="1" fill="#2E2E2E" />
<rect x="30" y="9" width="1" height="1" fill="#2E2E2E" />
<rect x="31" y="9" width="1" height="1" fill="#2E2E2E" />
<rect x="0" y="10" width="1" height="1" fill="#2B2B2B" />
<rect x="1" y="10" width="1" height="1" fill="#2B2B2B" />
<rect x="2" y="10" width="1" height="1" fill="#2B2B2B" />
<rect x="3" y="10" width="1" height="1" fill="#2B2B2B" />
<rect x="4" y="10" width="1" height="1" fill="#2B2B2B" />
<rect x="5" y="10" width="1" height="1" fill="#2B2B2B" />
<rect x="6" y="10" width="1" height="1" fill="#2E2E2E" />
<rect x="7" y="10" width="1" height="1" fill="#3E3E3E" />
<rect x="24" y="10" width="1" height="1" fill="#3E3E3E" />
<rect x="25" y="10" width="1" height="1" fill="#2E2E2E" />
<rect x="26" y="10" width="1" height="1" fill="#2B2B2B" />
<rect x="27" y="10" width="1" height="1" fill="#2B2B2B" />
<rect x="28" y="10" width="1" height="1" fill="#2B2B2B" />
<rect x="29" y="10" width="1" height="1" fill="#2B2B2B" />
<rect x="30" y="10" width="1" height="1" fill="#2B2B2B" />
<rect x="31" y="10" width="1" height="1" fill="#2B2B2B" />
<rect x="0" y="11" width="1" height="1" fill="#DCDCDC" />
<rect x="1" y="11" width="1" height="1" fill="#DCDCDC" />
<rect x="2" y="11" width="1" height="1" fill="#DCDCDC" />
<rect x="3" y="11" width="1" height="1" fill="#DCDCDC" />
<rect x="4" y="11" width="1" height="1" fill="#DCDCDC" />
<rect x="5" y="11" width="1" height="1" fill="#DCDCDC" />
<rect x="6" y="11" width="1" height="1" fill="#2E2E2E" />
<rect x="7" y="11" width="1" height="1" fill="#2E2E2E" />
<rect x="8" y="11" width="1" height="1" fill="#3E3E3E" />
<rect x="23" y="11" width="1" height="1" fill="#3E3E3E" />
<rect x="24" y="11" width="1" height="1" fill="#2E2E2E" />
<rect x="25" y="11" width="1" height="1" fill="#2E2E2E" />
<rect x="26" y="11" width="1" height="1" fill="#DCDCDC" />
<rect x="27" y="11" width="1" height="1" fill="#DCDCDC" />
<rect x="28" y="11" width="1" height="1" fill="#DCDCDC" />
<rect x="29" y="11" width="1" height="1" fill="#DCDCDC" />
<rect x="30" y="11" width="1" height="1" fill="#DCDCDC" />
<rect x="31" y="11" width="1" height="1" fill="#DCDCDC" />
<rect x="0" y="12" width="1" height="1" fill="#DCDCDC" />
<rect x="1" y="12" width="1" height="1" fill="#DCDCDC" />
<rect x="2" y="12" width="1" height="1" fill="#DCDCDC" />
<rect x="3" y="12" width="1" height="1" fill="#DCDCDC" />
<rect x="4" y="12" width="1" height="1" fill="#DCDCDC" />
<rect x="5" y="12" width="1" height="1" fill="#DCDCDC" />
<rect x="6" y="12" width="1" height="1" fill="#DCDCDC" />
<rect x="7" y="12" width="1" height="1" fill="#2B2B2B" />
<rect x="8" y="12" width="1" height="1" fill="#2E2E2E" />
<rect x="23" y="12" width="1" height="1" fill="#2E2E2E" />
<rect x="24" y="12" width="1" height="1" fill="#2B2B2B" />
<rect x="25" y="12" width="1" height="1" fill="#DCDCDC" />
<rect x="26" y="12" width="1" height="1" fill="#DCDCDC" />
<rect x="27" y="12" width="1" height="1" fill="#DCDCDC" />
<rect x="28" y="12" width="1" height="1" fill="#DCDCDC" />
<rect x="29" y="12" width="1" height="1" fill="#DCDCDC" />
<rect x="30" y="12" width="1" height="1" fill="#DCDCDC" />
<rect x="31" y="12" width="1" height="1" fill="#DCDCDC" />
<rect x="0" y="13" width="1" height="1" fill="#DCDCDC" />
<rect x="1" y="13" width="1" height="1" fill="#DCDCDC" />
<rect x="2" y="13" width="1" height="1" fill="#DCDCDC" />
<rect x="3" y="13" width="1" height="1" fill="#DCDCDC" />
<rect x="4" y="13" width="1" height="1" fill="#DCDCDC" />
<rect x="5" y="13" width="1" height="1" fill="#DCDCDC" />
<rect x="6" y="13" width="1" height="1" fill="#DCDCDC" />
<rect x="7" y="13" width="1" height="1" fill="#2B2B2B" />
<rect x="8" y="13" width="1" height="1" fill="#2E2E2E" />
<rect x="23" y="13" width="1" height="1" fill="#2E2E2E" />
<rect x="24" y="13" width="1" height="1" fill="#2B2B2B" />
<rect x="25" y="13" width="1" height="1" fill="#DCDCDC" />
<rect x="26" y="13" width="1" height="1" fill="#DCDCDC" />
<rect x="27" y="13" width="1" height="1" fill="#DCDCDC" />
<rect x="28" y="13" width="1" height="1" fill="#DCDCDC" />
<rect x="29" y="13" width="1" height="1" fill="#DCDCDC" />
<rect x="30" y="13" width="1" height="1" fill="#DCDCDC" />
<rect x="31" y="13" width="1" height="1" fill="#DCDCDC" />
<rect x="0" y="14" width="1" height="1" fill="#DCDCDC" />
<rect x="1" y="14" width="1" height="1" fill="#DCDCDC" />
<rect x="2" y="14" width="1" height="1" fill="#DCDCDC" />
<rect x="3" y="14" width="1" height="1" fill="#DCDCDC" />
<rect x="4" y="14" width="1" height="1" fill="#DCDCDC" />
<rect x="5" y="14" width="1" height="1" fill="#DCDCDC" />
<rect x="6" y="14" width="1" height="1" fill="#DCDCDC" />
<rect x="7" y="14" width="1" height="1" fill="#2B2B2B" />
<rect x="8" y="14" width="1" height="1" fill="#2E2E2E" />
<rect x="23" y="14" width="1" height="1" fill="#2E2E2E" />
<rect x="24" y="14" width="1" height="1" fill="#2B2B2B" />
<rect x="25" y="14" width="1" height="1" fill="#DCDCDC" />
<rect x="26" y="14" width="1" height="1" fill="#DCDCDC" />
<rect x="27" y="14" width="1" height="1" fill="#DCDCDC" />
<rect x="28" y="14" width="1" height="1" fill="#DCDCDC" />
<rect x="29" y="14" width="1" height="1" fill="#DCDCDC" />
<rect x="30" y="14" width="1" height="1" fill="#DCDCDC" />
<rect x="31" y="14" width="1" height="1" fill="#DCDCDC" />
<rect x="0" y="15" width="1" height="1" fill="#DCDCDC" />
<rect x="1" y="15" width="1" height="1" fill="#DCDCDC" />
<rect x="2" y="15" width="1" height="1" fill="#DCDCDC" />
<rect x="3" y="15" width="1" height="1" fill="#DCDCDC" />
<rect x="4" y="15" width="1" height="1" fill="#DCDCDC" />
<rect x="5" y="15" width="1" height="1" fill="#DCDCDC" />
<rect x="6" y="15" width="1" height="1" fill="#DCDCDC" />
<rect x="7" y="15" width="1" height="1" fill="#2B2B2B" />
<rect x="8" y="15" width="1" height="1" fill="#2E2E2E" />
<rect x="23" y="15" width="1" height="1" fill="#2E2E2E" />
<rect x="24" y="15" width="1" height="1" fill="#2B2B2B" />
<rect x="25" y="15" width="1" height="1" fill="#DCDCDC" />
<rect x="26" y="15" width="1" height="1" fill="#DCDCDC" />
<rect x="27" y="15" width="1" height="1" fill="#DCDCDC" />
<rect x="28" y="15" width="1" height="1" fill="#DCDCDC" />
<rect x="29" y="15" width="1" height="1" fill="#DCDCDC" />
<rect x="30" y="15" width="1" height="1" fill="#DCDCDC" />
<rect x="31" y="15" width="1" height="1" fill="#DCDCDC" />
<rect x="0" y="16" width="1" height="1" fill="#DCDCDC" />
<rect x="1" y="16" width="1" height="1" fill="#DCDCDC" />
<rect x="2" y="16" width="1" height="1" fill="#DCDCDC" />
<rect x="3" y="16" width="1" height="1" fill="#DCDCDC" />
<rect x="4" y="16" width="1" height="1" fill="#DCDCDC" />
<rect x="5" y="16" width="1" height="1" fill="#DCDCDC" />
<rect x="6" y="16" width="1" height="1" fill="#DCDCDC" />
<rect x="7" y="16" width="1" height="1" fill="#2B2B2B" />
<rect x="8" y="16" width="1" height="1" fill="#2E2E2E" />
<rect x="23" y="16" width="1" height="1" fill="#2E2E2E" />
<rect x="24" y="16" width="1" height="1" fill="#2B2B2B" />
<rect x="25" y="16" width="1" height="1" fill="#DCDCDC" />
<rect x="26" y="16" width="1" height="1" fill="#DCDCDC" />
<rect x="27" y="16" width="1" height="1" fill="#DCDCDC" />
<rect x="28" y="16" width="1" height="1" fill="#DCDCDC" />
<rect x="29" y="16" width="1" height="1" fill="#DCDCDC" />
<rect x="30" y="16" width="1" height="1" fill="#DCDCDC" />
<rect x="31" y="16" width="1" height="1" fill="#DCDCDC" />
<rect x="0" y="17" width="1" height="1" fill="#DCDCDC" />
<rect x="1" y="17" width="1" height="1" fill="#DCDCDC" />
<rect x="2" y="17" width="1" height="1" fill="#DCDCDC" />
<rect x="3" y="17" width="1" height="1" fill="#DCDCDC" />
<rect x="4" y="17" width="1" height="1" fill="#DCDCDC" />
<rect x="5" y="17" width="1" height="1" fill="#DCDCDC" />
<rect x="6" y="17" width="1" height="1" fill="#DCDCDC" />
<rect x="7" y="17" width="1" height="1" fill="#2B2B2B" />
<rect x="8" y="17" width="1" height="1" fill="#2E2E2E" />
<rect x="23" y="17" width="1" height="1" fill="#2E2E2E" />
<rect x="24" y="17" width="1" height="1" fill="#2B2B2B" />
<rect x="25" y="17" width="1" height="1" fill="#DCDCDC" />
<rect x="26" y="17" width="1" height="1" fill="#DCDCDC" />
<rect x="27" y="17" width="1" height="1" fill="#DCDCDC" />
<rect x="28" y="17" width="1" height="1" fill="#DCDCDC" />
<rect x="29" y="17" width="1" height="1" fill="#DCDCDC" />
<rect x="30" y="17" width="1" height="1" fill="#DCDCDC" />
<rect x="31" y="17" width="1" height="1" fill="#DCDCDC" />
<rect x="0" y="18" width="1" height="1" fill="#DCDCDC" />
<rect x="1" y="18" width="1" height="1" fill="#DCDCDC" />
<rect x="2" y="18" width="1" height="1" fill="#DCDCDC" />
<rect x="3" y="18" width="1" height="1" fill="#DCDCDC" />
<rect x="4" y="18" width="1" height="1" fill="#DCDCDC" />
<rect x="5" y="18" width="1" height="1" fill="#DCDCDC" />
<rect x="6" y="18" width="1" height="1" fill="#DCDCDC" />
<rect x="7" y="18" width="1" height="1" fill="#2B2B2B" />
<rect x="8" y="18" width="1" height="1" fill="#2E2E2E" />
<rect x="23" y="18" width="1" height="1" fill="#2E2E2E" />
<rect x="24" y="18" width="1" height="1" fill="#2B2B2B" />
<rect x="25" y="18" width="1" height="1" fill="#DCDCDC" />
<rect x="26" y="18" width="1" height="1" fill="#DCDCDC" />
<rect x="27" y="18" width="1" height="1" fill="#DCDCDC" />
<rect x="28" y="18" width="1" height="1" fill="#DCDCDC" />
<rect x="29" y="18" width="1" height="1" fill="#DCDCDC" />
<rect x="30" y="18" width="1" height="1" fill="#DCDCDC" />
<rect x="31" y="18" width="1" height="1" fill="#DCDCDC" />
<rect x="0" y="19" width="1" height="1" fill="#DCDCDC" />
<rect x="1" y="19" width="1" height="1" fill="#DCDCDC" />
<rect x="2" y="19" width="1" height="1" fill="#DCDCDC" />
<rect x="3" y="19" width="1" height="1" fill="#DCDCDC" />
<rect x="4" y="19" width="1" height="1" fill="#DCDCDC" />
<rect x="5" y="19" width="1" height="1" fill="#DCDCDC" />
<rect x="6" y="19" width="1" height="1" fill="#DCDCDC" />
<rect x="7" y="19" width="1" height="1" fill="#2B2B2B" />
<rect x="8" y="19" width="1" height="1" fill="#2E2E2E" />
<rect x="23" y="19" width="1" height="1" fill="#2E2E2E" />
<rect x="24" y="19" width="1" height="1" fill="#2B2B2B" />
<rect x="25" y="19" width="1" height="1" fill="#DCDCDC" />
<rect x="26" y="19" width="1" height="1" fill="#DCDCDC" />
<rect x="27" y="19" width="1" height="1" fill="#DCDCDC" />
<rect x="28" y="19" width="1" height="1" fill="#DCDCDC" />
<rect x="29" y="19" width="1" height="1" fill="#DCDCDC" />
<rect x="30" y="19" width="1" height="1" fill="#DCDCDC" />
<rect x="31" y="19" width="1" height="1" fill="#DCDCDC" />
<rect x="0" y="20" width="1" height="1" fill="#DCDCDC" />
<rect x="1" y="20" width="1" height="1" fill="#DCDCDC" />
<rect x="2" y="20" width="1" height="1" fill="#DCDCDC" />
<rect x="3" y="20" width="1" height="1" fill="#DCDCDC" />
<rect x="4" y="20" width="1" height="1" fill="#DCDCDC" />
<rect x="5" y="20" width="1" height="1" fill="#DCDCDC" />
<rect x="6" y="20" width="1" height="1" fill="#2E2E2E" />
<rect x="7" y="20" width="1" height="1" fill="#2E2E2E" />
<rect x="8" y="20" width="1" height="1" fill="#3E3E3E" />
<rect x="23" y="20" width="1" height="1" fill="#3E3E3E" />
<rect x="24" y="20" width="1" height="1" fill="#2E2E2E" />
<rect x="25" y="20" width="1" height="1" fill="#2E2E2E" />
<rect x="26" y="20" width="1" height="1" fill="#DCDCDC" />
<rect x="27" y="20" width="1" height="1" fill="#DCDCDC" />
<rect x="28" y="20" width="1" height="1" fill="#DCDCDC" />
<rect x="29" y="20" width="1" height="1" fill="#DCDCDC" />
<rect x="30" y="20" width="1" height="1" fill="#DCDCDC" />
<rect x="31" y="20" width="1" height="1" fill="#DCDCDC" />
<rect x="0" y="21" width="1" height="1" fill="#2B2B2B" />
<rect x="1" y="21" width="1" height="1" fill="#2B2B2B" />
<rect x="2" y="21" width="1" height="1" fill="#2B2B2B" />
<rect x="3" y="21" width="1" height="1" fill="#2B2B2B" />
<rect x="4" y="21" width="1" height="1" fill="#2B2B2B" />
<rect x="5" y="21" width="1" height="1" fill="#2B2B2B" />
<rect x="6" y="21" width="1" height="1" fill="#2E2E2E" />
<rect x="7" y="21" width="1" height="1" fill="#3E3E3E" />
<rect x="24" y="21" width="1" height="1" fill="#3E3E3E" />
<rect x="25" y="21" width="1" height="1" fill="#2E2E2E" />
<rect x="26" y="21" width="1" height="1" fill="#2B2B2B" />
<rect x="27" y="21" width="1" height="1" fill="#2B2B2B" />
<rect x="28" y="21" width="1" height="1" fill="#2B2B2B" />
<rect x="29" y="21" width="1" height="1" fill="#2B2B2B" />
<rect x="30" y="21" width="1" height="1" fill="#2B2B2B" />
<rect x="31" y="21" width="1" height="1" fill="#2B2B2B" />
<rect x="0" y="22" width="1" height="1" fill="#2E2E2E" />
<rect x="1" y="22" width="1" height="1" fill="#2E2E2E" />
<rect x="2" y="22" width="1" height="1" fill="#2E2E2E" />
<rect x="3" y="22" width="1" height="1" fill="#2E2E2E" />
<rect x="4" y="22" width="1" height="1" fill="#2E2E2E" />
<rect x="5" y="22" width="1" height="1" fill="#2E2E2E" />
<rect x="6" y="22" width="1" height="1" fill="#3E3E3E" />
<rect x="25" y="22" width="1" height="1" fill="#3E3E3E" />
<rect x="26" y="22" width="1" height="1" fill="#2E2E2E" />
<rect x="27" y="22" width="1" height="1" fill="#2E2E2E" />
<rect x="28" y="22" width="1" height="1" fill="#2E2E2E" />
<rect x="29" y="22" width="1" height="1" fill="#2E2E2E" />
<rect x="30" y="22" width="1" height="1" fill="#2E2E2E" />
<rect x="31" y="22" width="1" height="1" fill="#2E2E2E" />
<rect x="0" y="23" width="1" height="1" fill="#3E3E3E" />
<rect x="1" y="23" width="1" height="1" fill="#000000" />
<rect x="2" y="23" width="1" height="1" fill="#000000" opacity="0.215686" />
<rect x="3" y="23" width="1" height="1" fill="#000000" opacity="0.070588" />
<rect x="11" y="23" width="1" height="1" fill="#3E3E3E" />
<rect x="12" y="23" width="1" height="1" fill="#2E2E2E" />
<rect x="13" y="23" width="1" height="1" fill="#2E2E2E" />
<rect x="14" y="23" width="1" height="1" fill="#2E2E2E" />
<rect x="15" y="23" width="1" height="1" fill="#2E2E2E" />
<rect x="16" y="23" width="1" height="1" fill="#2E2E2E" />
<rect x="17" y="23" width="1" height="1" fill="#2E2E2E" />
<rect x="18" y="23" width="1" height="1" fill="#2E2E2E" />
<rect x="19" y="23" width="1" height="1" fill="#2E2E2E" />
<rect x="20" y="23" width="1" height="1" fill="#3E3E3E" />
<rect x="28" y="23" width="1" height="1" fill="#000000" opacity="0.070588" />
<rect x="29" y="23" width="1" height="1" fill="#000000" opacity="0.215686" />
<rect x="30" y="23" width="1" height="1" fill="#000000" />
<rect x="31" y="23" width="1" height="1" fill="#3E3E3E" />
<rect x="0" y="24" width="1" height="1" fill="#000000" />
<rect x="1" y="24" width="1" height="1" fill="#000000" />
<rect x="2" y="24" width="1" height="1" fill="#000000" opacity="0.215686" />
<rect x="3" y="24" width="1" height="1" fill="#000000" opacity="0.070588" />
<rect x="10" y="24" width="1" height="1" fill="#3E3E3E" />
<rect x="11" y="24" width="1" height="1" fill="#2E2E2E" />
<rect x="12" y="24" width="1" height="1" fill="#2B2B2B" />
<rect x="13" y="24" width="1" height="1" fill="#2B2B2B" />
<rect x="14" y="24" width="1" height="1" fill="#2B2B2B" />
<rect x="15" y="24" width="1" height="1" fill="#2B2B2B" />
<rect x="16" y="24" width="1" height="1" fill="#2B2B2B" />
<rect x="17" y="24" width="1" height="1" fill="#2B2B2B" />
<rect x="18" y="24" width="1" height="1" fill="#2B2B2B" />
<rect x="19" y="24" width="1" height="1" fill="#2B2B2B" />
<rect x="20" y="24" width="1" height="1" fill="#2E2E2E" />
<rect x="21" y="24" width="1" height="1" fill="#3E3E3E" />
<rect x="28" y="24" width="1" height="1" fill="#000000" opacity="0.070588" />
<rect x="29" y="24" width="1" height="1" fill="#000000" opacity="0.215686" />
<rect x="30" y="24" width="1" height="1" fill="#000000" />
<rect x="31" y="24" width="1" height="1" fill="#000000" />
<rect x="0" y="25" width="1" height="1" fill="#000000" />
<rect x="1" y="25" width="1" height="1" fill="#000000" opacity="0.380392" />
<rect x="2" y="25" width="1" height="1" fill="#000000" opacity="0.215686" />
<rect x="3" y="25" width="1" height="1" fill="#000000" opacity="0.070588" />
<rect x="9" y="25" width="1" height="1" fill="#3E3E3E" />
<rect x="10" y="25" width="1" height="1" fill="#2E2E2E" />
<rect x="11" y="25" width="1" height="1" fill="#2E2E2E" />
<rect x="12" y="25" width="1" height="1" fill="#DCDCDC" />
<rect x="13" y="25" width="1" height="1" fill="#DCDCDC" />
<rect x="14" y="25" width="1" height="1" fill="#DCDCDC" />
<rect x="15" y="25" width="1" height="1" fill="#DCDCDC" />
<rect x="16" y="25" width="1" height="1" fill="#DCDCDC" />
<rect x="17" y="25" width="1" height="1" fill="#DCDCDC" />
<rect x="18" y="25" width="1" height="1" fill="#DCDCDC" />
<rect x="19" y="25" width="1" height="1" fill="#DCDCDC" />
<rect x="20" y="25" width="1" height="1" fill="#2E2E2E" />
<rect x="21" y="25" width="1" height="1" fill="#2E2E2E" />
<rect x="22" y="25" width="1" height="1" fill="#3E3E3E" />
<rect x="28" y="25" width="1" height="1" fill="#000000" opacity="0.070588" />
<rect x="29" y="25" width="1" height="1" fill="#000000" opacity="0.215686" />
<rect x="30" y="25" width="1" height="1" fill="#000000" opacity="0.380392" />
<rect x="31" y="25" width="1" height="1" fill="#000000" />
<rect x="0" y="26" width="1" height="1" fill="#000000" />
<rect x="1" y="26" width="1" height="1" fill="#000000" opacity="0.380392" />
<rect x="2" y="26" width="1" height="1" fill="#000000" opacity="0.215686" />
<rect x="3" y="26" width="1" height="1" fill="#000000" opacity="0.070588" />
<rect x="4" y="26" width="1" height="1" fill="#000000" opacity="0.070588" />
<rect x="9" y="26" width="1" height="1" fill="#2E2E2E" />
<rect x="10" y="26" width="1" height="1" fill="#2B2B2B" />
<rect x="11" y="26" width="1" height="1" fill="#DCDCDC" />
<rect x="12" y="26" width="1" height="1" fill="#DCDCDC" />
<rect x="13" y="26" width="1" height="1" fill="#DCDCDC" />
<rect x="14" y="26" width="1" height="1" fill="#DCDCDC" />
<rect x="15" y="26" width="1" height="1" fill="#DCDCDC" />
<rect x="16" y="26" width="1" height="1" fill="#DCDCDC" />
<rect x="17" y="26" width="1" height="1" fill="#DCDCDC" />
<rect x="18" y="26" width="1" height="1" fill="#DCDCDC" />
<rect x="19" y="26" width="1" height="1" fill="#DCDCDC" />
<rect x="20" y="26" width="1" height="1" fill="#DCDCDC" />
<rect x="21" y="26" width="1" height="1" fill="#2B2B2B" />
<rect x="22" y="26" width="1" height="1" fill="#2E2E2E" />
<rect x="27" y="26" width="1" height="1" fill="#000000" opacity="0.070588" />
<rect x="28" y="26" width="1" height="1" fill="#000000" opacity="0.070588" />
<rect x="29" y="26" width="1" height="1" fill="#000000" opacity="0.215686" />
<rect x="30" y="26" width="1" height="1" fill="#000000" opacity="0.380392" />
<rect x="31" y="26" width="1" height="1" fill="#000000" />
<rect x="0" y="27" width="1" height="1" fill="#000000" />
<rect x="1" y="27" width="1" height="1" fill="#000000" opacity="0.380392" />
<rect x="2" y="27" width="1" height="1" fill="#000000" opacity="0.215686" />
<rect x="3" y="27" width="1" height="1" fill="#000000" opacity="0.215686" />
<rect x="4" y="27" width="1" height="1" fill="#000000" opacity="0.070588" />
<rect x="5" y="27" width="1" height="1" fill="#000000" opacity="0.070588" />
<rect x="9" y="27" width="1" height="1" fill="#2E2E2E" />
<rect x="10" y="27" width="1" height="1" fill="#2B2B2B" />
<rect x="11" y="27" width="1" height="1" fill="#DCDCDC" />
<rect x="12" y="27" width="1" height="1" fill="#DCDCDC" />
<rect x="13" y="27" width="1" height="1" fill="#DCDCDC" />
<rect x="14" y="27" width="1" height="1" fill="#DCDCDC" />
<rect x="15" y="27" width="1" height="1" fill="#DCDCDC" />
<rect x="16" y="27" width="1" height="1" fill="#DCDCDC" />
<rect x="17" y="27" width="1" height="1" fill="#DCDCDC" />
<rect x="18" y="27" width="1" height="1" fill="#DCDCDC" />
<rect x="19" y="27" width="1" height="1" fill="#DCDCDC" />
<rect x="20" y="27" width="1" height="1" fill="#DCDCDC" />
<rect x="21" y="27" width="1" height="1" fill="#2B2B2B" />
<rect x="22" y="27" width="1" height="1" fill="#2E2E2E" />
<rect x="26" y="27" width="1" height="1" fill="#000000" opacity="0.070588" />
<rect x="27" y="27" width="1" height="1" fill="#000000" opacity="0.070588" />
<rect x="28" y="27" width="1" height="1" fill="#000000" opacity="0.215686" />
<rect x="29" y="27" width="1" height="1" fill="#000000" opacity="0.215686" />
<rect x="30" y="27" width="1" height="1" fill="#000000" opacity="0.380392" />
<rect x="31" y="27" width="1" height="1" fill="#000000" />
<rect x="0" y="28" width="1" height="1" fill="#000000" />
<rect x="1" y="28" width="1" height="1" fill="#000000" opacity="0.380392" />
<rect x="2" y="28" width="1" height="1" fill="#000000" opacity="0.380392" />
<rect x="3" y="28" width="1" height="1" fill="#000000" opacity="0.215686" />
<rect x="4" y="28" width="1" height="1" fill="#000000" opacity="0.215686" />
<rect x="5" y="28" width="1" height="1" fill="#000000" opacity="0.070588" />
<rect x="6" y="28" width="1" height="1" fill="#000000" opacity="0.070588" />
<rect x="7" y="28" width="1" height="1" fill="#000000" opacity="0.070588" />
<rect x="8" y="28" width="1" height="1" fill="#000000" opacity="0.070588" />
<rect x="9" y="28" width="1" height="1" fill="#2E2E2E" />
<rect x="10" y="28" width="1" height="1" fill="#2B2B2B" />
<rect x="11" y="28" width="1" height="1" fill="#DCDCDC" />
<rect x="12" y="28" width="1" height="1" fill="#DCDCDC" />
<rect x="13" y="28" width="1" height="1" fill="#DCDCDC" />
<rect x="14" y="28" width="1" height="1" fill="#DCDCDC" />
<rect x="15" y="28" width="1" height="1" fill="#DCDCDC" />
<rect x="16" y="28" width="1" height="1" fill="#DCDCDC" />
<rect x="17" y="28" width="1" height="1" fill="#DCDCDC" />
<rect x="18" y="28" width="1" height="1" fill="#DCDCDC" />
<rect x="19" y="28" width="1" height="1" fill="#DCDCDC" />
<rect x="20" y="28" width="1" height="1" fill="#DCDCDC" />
<rect x="21" y="28" width="1" height="1" fill="#2B2B2B" />
<rect x="22" y="28" width="1" height="1" fill="#2E2E2E" />
<rect x="23" y="28" width="1" height="1" fill="#000000" opacity="0.070588" />
<rect x="24" y="28" width="1" height="1" fill="#000000" opacity="0.070588" />
<rect x="25" y="28" width="1" height="1" fill="#000000" opacity="0.070588" />
<rect x="26" y="28" width="1" height="1" fill="#000000" opacity="0.070588" />
<rect x="27" y="28" width="1" height="1" fill="#000000" opacity="0.215686" />
<rect x="28" y="28" width="1" height="1" fill="#000000" opacity="0.215686" />
<rect x="29" y="28" width="1" height="1" fill="#000000" opacity="0.380392" />
<rect x="30" y="28" width="1" height="1" fill="#000000" opacity="0.380392" />
<rect x="31" y="28" width="1" height="1" fill="#000000" />
<rect x="0" y="29" width="1" height="1" fill="#000000" />
<rect x="1" y="29" width="1" height="1" fill="#000000" />
<rect x="2" y="29" width="1" height="1" fill="#000000" opacity="0.380392" />
<rect x="3" y="29" width="1" height="1" fill="#000000" opacity="0.380392" />
<rect x="4" y="29" width="1" height="1" fill="#000000" opacity="0.215686" />
<rect x="5" y="29" width="1" height="1" fill="#000000" opacity="0.215686" />
<rect x="6" y="29" width="1" height="1" fill="#000000" opacity="0.215686" />
<rect x="7" y="29" width="1" height="1" fill="#000000" opacity="0.215686" />
<rect x="8" y="29" width="1" height="1" fill="#000000" opacity="0.215686" />
<rect x="9" y="29" width="1" height="1" fill="#2E2E2E" />
<rect x="10" y="29" width="1" height="1" fill="#2B2B2B" />
<rect x="11" y="29" width="1" height="1" fill="#DCDCDC" />
<rect x="12" y="29" width="1" height="1" fill="#DCDCDC" />
<rect x="13" y="29" width="1" height="1" fill="#DCDCDC" />
<rect x="14" y="29" width="1" height="1" fill="#DCDCDC" />
<rect x="15" y="29" width="1" height="1" fill="#DCDCDC" />
<rect x="16" y="29" width="1" height="1" fill="#DCDCDC" />
<rect x="17" y="29" width="1" height="1" fill="#DCDCDC" />
<rect x="18" y="29" width="1" height="1" fill="#DCDCDC" />
<rect x="19" y="29" width="1" height="1" fill="#DCDCDC" />
<rect x="20" y="29" width="1" height="1" fill="#DCDCDC" />
<rect x="21" y="29" width="1" height="1" fill="#2B2B2B" />
<rect x="22" y="29" width="1" height="1" fill="#2E2E2E" />
<rect x="23" y="29" width="1" height="1" fill="#000000" opacity="0.215686" />
<rect x="24" y="29" width="1" height="1" fill="#000000" opacity="0.215686" />
<rect x="25" y="29" width="1" height="1" fill="#000000" opacity="0.215686" />
<rect x="26" y="29" width="1" height="1" fill="#000000" opacity="0.215686" />
<rect x="27" y="29" width="1" height="1" fill="#000000" opacity="0.215686" />
<rect x="28" y="29" width="1" height="1" fill="#000000" opacity="0.380392" />
<rect x="29" y="29" width="1" height="1" fill="#000000" opacity="0.380392" />
<rect x="30" y="29" width="1" height="1" fill="#000000" />
<rect x="31" y="29" width="1" height="1" fill="#000000" />
<rect x="0" y="30" width="1" height="1" fill="#000000" />
<rect x="1" y="30" width="1" height="1" fill="#A2A2A2" />
<rect x="2" y="30" width="1" height="1" fill="#000000" />
<rect x="3" y="30" width="1" height="1" fill="#000000" opacity="0.380392" />
<rect x="4" y="30" width="1" height="1" fill="#000000" opacity="0.380392" />
<rect x="5" y="30" width="1" height="1" fill="#000000" opacity="0.380392" />
<rect x="6" y="30" width="1" height="1" fill="#000000" opacity="0.380392" />
<rect x="7" y="30" width="1" height="1" fill="#000000" />
<rect x="8" y="30" width="1" height="1" fill="#000000" />
<rect x="9" y="30" width="1" height="1" fill="#2E2E2E" />
<rect x="10" y="30" width="1" height="1" fill="#2B2B2B" />
<rect x="11" y="30" width="1" height="1" fill="#DCDCDC" />
<rect x="12" y="30" width="1" height="1" fill="#DCDCDC" />
<rect x="13" y="30" width="1" height="1" fill="#DCDCDC" />
<rect x="14" y="30" width="1" height="1" fill="#DCDCDC" />
<rect x="15" y="30" width="1" height="1" fill="#DCDCDC" />
<rect x="16" y="30" width="1" height="1" fill="#DCDCDC" />
<rect x="17" y="30" width="1" height="1" fill="#DCDCDC" />
<rect x="18" y="30" width="1" height="1" fill="#DCDCDC" />
<rect x="19" y="30" width="1" height="1" fill="#DCDCDC" />
<rect x="20" y="30" width="1" height="1" fill="#DCDCDC" />
<rect x="21" y="30" width="1" height="1" fill="#2B2B2B" />
<rect x="22" y="30" width="1" height="1" fill="#2E2E2E" />
<rect x="23" y="30" width="1" height="1" fill="#000000" />
<rect x="24" y="30" width="1" height="1" fill="#000000" />
<rect x="25" y="30" width="1" height="1" fill="#000000" opacity="0.380392" />
<rect x="26" y="30" width="1" height="1" fill="#000000" opacity="0.380392" />
<rect x="27" y="30" width="1" height="1" fill="#000000" opacity="0.380392" />
<rect x="28" y="30" width="1" height="1" fill="#000000" opacity="0.380392" />
<rect x="29" y="30" width="1" height="1" fill="#000000" />
<rect x="30" y="30" width="1" height="1" fill="#A2A2A2" />
<rect x="31" y="30" width="1" height="1" fill="#000000" />
<rect x="0" y="31" width="1" height="1" fill="#D5D5D5" />
<rect x="1" y="31" width="1" height="1" fill="#000000" />
<rect x="2" y="31" width="1" height="1" fill="#000000" />
<rect x="3" y="31" width="1" height="1" fill="#000000" />
<rect x="4" y="31" width="1" height="1" fill="#000000" />
<rect x="5" y="31" width="1" height="1" fill="#000000" />
<rect x="6" y="31" width="1" height="1" fill="#000000" />
<rect x="7" y="31" width="1" height="1" fill="#000000" />
<rect x="8" y="31" width="1" height="1" fill="#3E3E3E" />
<rect x="9" y="31" width="1" height="1" fill="#2E2E2E" />
<rect x="10" y="31" width="1" height="1" fill="#2B2B2B" />
<rect x="11" y="31" width="1" height="1" fill="#DCDCDC" />
<rect x="12" y="31" width="1" height="1" fill="#DCDCDC" />
<rect x="13" y="31" width="1" height="1" fill="#DCDCDC" />
<rect x="14" y="31" width="1" height="1" fill="#DCDCDC" />
<rect x="15" y="31" width="1" height="1" fill="#DCDCDC" />
<rect x="16" y="31" width="1" height="1" fill="#DCDCDC" />
<rect x="17" y="31" width="1" height="1" fill="#DCDCDC" />
<rect x="18" y="31" width="1" height="1" fill="#DCDCDC" />
<rect x="19" y="31" width="1" height="1" fill="#DCDCDC" />
<rect x="20" y="31" width="1" height="1" fill="#DCDCDC" />
<rect x="21" y="31" width="1" height="1" fill="#2B2B2B" />
<rect x="22" y="31" width="1" height="1" fill="#2E2E2E" />
<rect x="23" y="31" width="1" height="1" fill="#3E3E3E" />
<rect x="24" y="31" width="1" height="1" fill="#000000" />
<rect x="25" y="31" width="1" height="1" fill="#000000" />
<rect x="26" y="31" width="1" height="1" fill="#000000" />
<rect x="27" y="31" width="1" height="1" fill="#000000" />
<rect x="28" y="31" width="1" height="1" fill="#000000" />
<rect x="29" y="31" width="1" height="1" fill="#000000" />
<rect x="30" y="31" width="1" height="1" fill="#000000" />
<rect x="31" y="31" width="1" height="1" fill="#D5D5D5" />
</svg>